<?xml version="1.0" standalone="no"?>
<!DOCTYPE svg PUBLIC "-//W3C//DTD SVG 20010904//EN"
 "http://www.w3.org/TR/2001/REC-SVG-20010904/DTD/svg10.dtd">
<svg version="1.0" xmlns="http://www.w3.org/2000/svg"
 width="500.000000pt" height="500.000000pt" viewBox="0 0 500.000000 500.000000"
 preserveAspectRatio="xMidYMid meet">

<g transform="translate(0.000000,500.000000) scale(0.100000,-0.100000)"
fill="#000000" stroke="none">
<path d="M0 2500 l0 -2500 2500 0 2500 0 0 2500 0 2500 -2500 0 -2500 0 0
-2500z m2700 1216 c248 -38 472 -148 662 -326 91 -85 190 -216 244 -322 40
-79 39 -78 16 -78 -12 0 -26 17 -41 48 -74 153 -245 350 -386 443 -147 97
-337 174 -495 199 -175 27 -413 4 -582 -56 -281 -100 -532 -319 -659 -574 -21
-43 -35 -60 -49 -60 -19 0 -20 2 -5 38 49 116 178 289 291 388 279 245 643
354 1004 300z m35 -120 c330 -72 598 -272 760 -569 21 -37 35 -71 32 -74 -14
-14 -38 11 -71 74 -135 256 -380 443 -686 525 -94 25 -305 35 -410 19 -341
-53 -658 -279 -801 -573 -15 -31 -29 -48 -41 -48 -16 0 -14 9 18 72 70 138
190 279 329 383 125 94 332 178 500 205 82 12 285 5 370 -14z m-339 -202 c4
-27 2 -50 -4 -56 -12 -12 -20 9 -22 57 -3 40 -2 45 9 45 6 0 13 -21 17 -46z
m112 27 c3 -10 -2 -12 -22 -7 -33 8 -34 -2 0 -14 38 -15 30 -55 -10 -55 -16 0
-31 6 -34 14 -3 10 1 12 17 8 27 -7 28 9 1 18 -20 6 -27 35 -13 49 12 11 56 2
61 -13z m123 9 c22 -12 26 -59 7 -78 -7 -7 -24 -12 -38 -12 -33 0 -50 17 -50
52 0 40 40 59 81 38z m-312 -54 c33 -48 32 -58 -9 -50 -20 4 -29 1 -33 -11
-13 -33 -26 -4 -20 43 5 38 16 61 30 62 1 0 16 -20 32 -44z m419 12 c10 -31
11 -32 17 -10 10 32 39 30 31 -3 -21 -82 -43 -95 -60 -34 -8 32 -9 33 -15 10
-7 -26 -31 -42 -31 -20 0 28 24 89 35 89 7 0 17 -15 23 -32z m-519 -97 c-6 -1
-17 5 -25 15 -15 18 -15 18 -11 -3 7 -30 -10 -39 -32 -19 -17 16 -18 15 -14
-9 8 -40 -11 -29 -35 20 -26 53 -14 68 29 36 l29 -22 0 35 c0 51 22 50 47 -3
14 -27 18 -47 12 -50z m719 33 c26 -18 28 -50 5 -76 -20 -22 -42 -23 -71 -2
l-22 15 22 40 c24 43 33 46 66 23z m105 -68 c9 -7 17 -19 17 -27 0 -10 -3 -10
-12 -1 -19 19 -30 14 -23 -9 6 -18 4 -20 -14 -14 -23 7 -28 -4 -9 -23 6 -6 8
-15 5 -19 -4 -4 -17 3 -29 14 l-21 22 27 35 c30 40 33 41 59 22z m-1032 -32
c42 -26 44 -34 12 -38 -10 -1 -22 -12 -28 -24 -14 -32 -21 -28 -40 22 -27 70
-10 82 56 40z m1123 -56 c8 -13 7 -21 -1 -29 -10 -10 -15 -7 -23 12 -9 22 -10
22 -7 -10 3 -41 -22 -63 -47 -42 -19 16 -22 55 -3 48 6 -2 11 -10 10 -16 -2
-6 2 -11 7 -11 6 0 8 10 4 24 -3 14 -3 30 1 36 10 16 46 8 59 -12z m-1196 -46
c6 6 15 8 19 5 4 -4 -2 -17 -13 -28 -20 -20 -20 -20 -59 14 -25 22 -36 38 -31
46 6 9 17 5 40 -18 25 -24 35 -28 44 -19z m1802 -307 c0 -10 -2452 -20 -2478
-10 -59 22 77 25 1239 23 818 -2 1239 -6 1239 -13z m-2024 -160 c17 -22 18
-107 3 -122 -8 -8 -6 -18 6 -37 13 -19 16 -40 13 -76 -7 -72 -27 -90 -100 -90
l-58 0 0 168 c0 93 3 172 8 176 14 15 114 0 128 -19z m213 6 c25 -25 35 -92
29 -203 -6 -105 -20 -128 -79 -128 -71 0 -82 29 -77 195 3 109 5 118 27 136
30 24 76 24 100 0z m218 4 c3 -9 -11 -73 -31 -143 -20 -70 -36 -131 -36 -134
0 -4 15 -8 33 -10 24 -2 33 -8 35 -25 3 -22 0 -23 -62 -23 -65 0 -66 0 -66 28
0 22 34 155 65 251 6 19 2 21 -29 21 -28 0 -36 4 -36 18 0 28 9 32 67 32 39 0
55 -4 60 -15z m189 -125 c11 -74 23 -152 27 -173 6 -37 5 -38 -21 -35 -21 2
-28 9 -30 31 -3 23 -8 27 -33 27 -26 0 -29 -3 -29 -30 0 -26 -4 -30 -28 -30
l-29 0 24 163 c13 89 25 168 28 175 3 8 17 12 37 10 l33 -3 21 -135z m144 70
c0 -68 1 -70 25 -70 24 0 25 2 25 70 0 68 1 70 25 70 l25 0 0 -175 0 -175 -25
0 c-25 0 -25 1 -25 80 0 79 0 80 -25 80 -25 0 -25 -1 -25 -80 0 -79 0 -80 -25
-80 l-25 0 0 175 0 175 25 0 c24 0 25 -2 25 -70z m299 51 c25 -25 35 -92 29
-203 -6 -105 -20 -128 -79 -128 -71 0 -82 29 -77 195 3 109 5 118 27 136 30
24 76 24 100 0z m151 -130 c0 -148 7 -178 33 -152 8 8 13 64 15 156 l3 145 25
0 24 0 0 -147 c0 -179 -6 -197 -69 -201 -76 -6 -81 5 -81 190 l0 158 25 0 25
0 0 -149z m284 136 c11 -8 20 -31 23 -60 5 -45 5 -47 -20 -47 -22 0 -26 5 -29
32 -2 22 -9 34 -20 36 -34 7 -21 -45 27 -104 40 -49 45 -60 45 -106 0 -65 -19
-88 -71 -88 -47 0 -69 27 -69 87 0 39 2 43 24 43 22 0 25 -5 28 -42 2 -30 8
-43 18 -43 17 0 24 27 16 60 -3 13 -24 45 -46 70 -34 40 -40 53 -40 92 0 29 6
53 17 65 19 21 71 24 97 5z m206 -12 c0 -21 -5 -25 -30 -25 -29 0 -30 -1 -30
-50 0 -49 1 -50 30 -50 25 0 30 -4 30 -25 0 -21 -5 -25 -30 -25 -29 0 -30 -1
-30 -49 0 -49 1 -50 33 -53 24 -2 33 -8 35 -25 3 -22 0 -23 -62 -23 l-66 0 0
168 c0 93 3 172 7 175 3 4 30 7 60 7 50 0 53 -1 53 -25z m320 -470 c0 -13
-144 -15 -1239 -15 -682 0 -1242 4 -1245 9 -3 4 -3 11 1 15 3 3 564 6 1245 6
1094 0 1238 -2 1238 -15z m-2186 -152 c63 -134 222 -319 345 -402 89 -61 253
-137 351 -163 75 -20 108 -23 270 -22 209 0 271 12 429 82 214 94 383 249 509
465 24 42 51 77 58 77 21 0 18 -9 -31 -94 -228 -401 -671 -626 -1111 -565
-362 50 -685 281 -848 607 -24 47 -25 52 -8 52 11 0 25 -14 36 -37z m-98 -75
c75 -148 218 -317 353 -417 296 -218 681 -286 1040 -185 116 32 287 119 394
200 129 97 270 266 338 407 15 30 29 47 41 47 23 0 23 -1 -8 -63 -148 -296
-436 -534 -758 -626 -258 -74 -505 -66 -756 25 -282 101 -530 316 -666 577
-41 79 -43 87 -25 87 15 0 28 -15 47 -52z m1584 -160 c0 -15 -17 -8 -39 16
-13 14 -20 30 -16 36 5 8 15 3 31 -16 13 -16 23 -32 24 -36z m-1008 35 c22
-20 23 -42 3 -49 -8 -4 -15 -15 -15 -25 0 -25 -31 -25 -61 -1 l-22 19 29 36
c33 42 40 44 66 20z m1028 -58 c0 -8 -4 -15 -9 -15 -13 0 -22 16 -14 24 11 11
23 6 23 -9z m-914 -26 c17 -19 17 -23 3 -47 -18 -33 -54 -40 -80 -16 -21 19
-24 36 -9 65 14 26 62 25 86 -2z m758 0 c-3 -5 -12 -9 -20 -9 -8 0 -14 -4 -14
-9 0 -6 12 -9 27 -8 21 2 29 -3 31 -19 4 -27 -21 -47 -49 -39 -23 8 -16 20 16
28 13 3 8 5 -13 6 -42 1 -54 27 -23 52 21 18 56 16 45 -2z m-669 -31 c32 -15
32 -22 -5 -48 -29 -21 -30 -23 -13 -35 28 -20 12 -25 -27 -9 l-35 15 35 29
c30 24 32 30 18 35 -19 8 -25 25 -8 25 5 0 21 -5 35 -12z m570 -31 c1 -16 7
-32 15 -37 8 -5 11 -12 7 -17 -4 -4 -17 -2 -27 5 -17 11 -20 10 -20 -8 0 -33
-17 -23 -34 20 -20 51 -20 57 2 63 39 11 57 3 57 -26z m-452 -49 c8 -60 4 -67
-22 -44 -13 12 -27 15 -47 10 -28 -7 -28 -7 -13 17 9 13 22 34 30 47 25 40 46
28 52 -30z m351 18 c4 -18 4 -40 0 -49 -12 -33 -69 -32 -78 1 -16 60 -16 72
-2 72 9 0 18 -14 22 -35 4 -22 12 -35 21 -35 12 0 14 8 9 40 -8 51 19 57 28 6z
m-273 2 c10 -19 12 -19 21 -5 5 10 16 17 24 17 13 0 13 -6 -5 -36 -12 -19 -21
-42 -21 -50 0 -8 -7 -14 -16 -14 -11 0 -14 5 -10 16 3 8 -1 28 -9 44 -8 16
-15 34 -15 40 0 18 19 11 31 -12z m149 2 c0 -5 -7 -10 -15 -10 -8 0 -15 -4
-15 -10 0 -5 7 -10 15 -10 8 0 15 -4 15 -10 0 -5 -7 -10 -15 -10 -8 0 -15 -4
-15 -10 0 -5 9 -10 20 -10 11 0 20 -4 20 -10 0 -5 -16 -10 -35 -10 l-35 0 0
50 c0 49 1 50 30 50 17 0 30 -4 30 -10z"/>
<path d="M2581 3402 c-8 -15 -7 -23 5 -33 18 -15 38 0 32 27 -5 25 -25 28 -37
6z"/>
<path d="M2280 3366 c0 -9 5 -16 10 -16 6 0 10 4 10 9 0 6 -4 13 -10 16 -5 3
-10 -1 -10 -9z"/>
<path d="M2903 3298 c-21 -27 -22 -36 -8 -42 19 -7 46 20 39 39 -7 18 -18 19
-31 3z"/>
<path d="M1970 3211 c0 -5 5 -13 10 -16 6 -3 10 -2 10 4 0 5 -4 13 -10 16 -5
3 -10 2 -10 -4z"/>
<path d="M1640 2585 c0 -39 3 -46 18 -43 13 2 17 13 17 43 0 30 -4 41 -17 43
-15 3 -18 -4 -18 -43z"/>
<path d="M1640 2434 c0 -57 2 -65 18 -62 13 2 18 15 20 57 3 51 -5 70 -30 71
-5 0 -8 -30 -8 -66z"/>
<path d="M1862 2503 c3 -106 6 -128 18 -128 13 0 15 21 15 125 0 112 -2 125
-18 128 -16 3 -17 -6 -15 -125z"/>
<path d="M2276 2559 c-2 -8 -7 -38 -11 -66 -5 -49 -4 -53 15 -53 20 0 21 4 14
63 -7 66 -11 78 -18 56z"/>
<path d="M2712 2503 c3 -106 6 -128 18 -128 13 0 15 21 15 125 0 112 -2 125
-18 128 -16 3 -17 -6 -15 -125z"/>
<path d="M2000 1810 c0 -5 5 -10 10 -10 6 0 10 5 10 10 0 6 -4 10 -10 10 -5 0
-10 -4 -10 -10z"/>
<path d="M1976 1782 c-3 -6 -1 -14 5 -17 15 -10 25 3 12 16 -7 7 -13 7 -17 1z"/>
<path d="M2087 1743 c-12 -12 -7 -41 7 -46 19 -7 40 18 32 38 -6 15 -28 20
-39 8z"/>
<path d="M2760 1690 c0 -5 7 -10 16 -10 8 0 12 5 9 10 -3 6 -10 10 -16 10 -5
0 -9 -4 -9 -10z"/>
<path d="M2315 1640 c-3 -5 -1 -10 4 -10 6 0 11 5 11 10 0 6 -2 10 -4 10 -3 0
-8 -4 -11 -10z"/>
</g>
</svg>
