<svg width="21" height="21" viewBox="0 0 21 21" fill="none" xmlns="http://www.w3.org/2000/svg">
<path d="M7.5 0C4.6095 0 2.25 2.3595 2.25 5.25C2.25 7.0575 3.1725 8.664 4.5705 9.60975C1.89525 10.7572 0 13.41 0 16.5H1.5C1.5 13.1775 4.1775 10.5 7.5 10.5C8.532 10.5 9.4905 10.7685 10.335 11.2275C9.47103 12.295 8.99976 13.6267 9 15C9 18.3045 11.6955 21 15 21C18.3045 21 21 18.3045 21 15C21 11.6955 18.3045 9 15 9C13.7362 9.0017 12.5055 9.40338 11.484 10.1475C11.1525 9.93975 10.794 9.765 10.4295 9.609C11.1433 9.12762 11.7281 8.47849 12.1327 7.71852C12.5372 6.95855 12.7492 6.11095 12.75 5.25C12.75 2.3595 10.3905 0 7.5 0ZM7.5 1.5C9.57975 1.5 11.25 3.17025 11.25 5.25C11.25 7.32975 9.57975 9 7.5 9C5.42025 9 3.75 7.32975 3.75 5.25C3.75 3.17025 5.42025 1.5 7.5 1.5ZM15 10.5C17.4945 10.5 19.5 12.5055 19.5 15C19.5 17.4945 17.4945 19.5 15 19.5C12.5055 19.5 10.5 17.4945 10.5 15C10.5 12.5055 12.5055 10.5 15 10.5ZM14.25 12V14.25H12V15.75H14.25V18H15.75V15.75H18V14.25H15.75V12H14.25Z" fill="#2696F0"/>
</svg>
