<svg width="24" height="24" viewBox="0 0 24 24" fill="none" xmlns="http://www.w3.org/2000/svg">
<path d="M17.8833 6.09301C16.8375 3.31726 14.589 1.55923 11.1926 1.55923C6.8711 1.55923 3.84748 4.76811 3.58763 8.95461C1.5041 9.62099 0 11.7465 0 14.154C0 17.1011 2.31675 19.5907 5.05835 19.5907H7.2251C7.6391 19.5907 7.9751 19.2547 7.9751 18.8407C7.9751 18.4264 7.6391 18.0907 7.2251 18.0907H5.05835C3.12935 18.0907 1.47635 16.2881 1.47635 14.154C1.47635 12.2681 2.7986 10.5667 4.45723 10.2817L5.13785 10.1644L5.07748 9.47699L5.07185 9.46836C5.07185 5.81511 7.47598 3.05961 11.1926 3.05961C14.1716 3.05961 15.8453 4.52736 16.6193 7.03086L16.7797 7.54724L17.3201 7.55886C20.1063 7.61736 22.5491 9.87788 22.5491 12.6863C22.5491 15.2423 20.8552 18.0908 18.2906 18.0908H16.5769C16.1629 18.0908 15.8269 18.4268 15.8269 18.8408C15.8269 19.2551 16.1629 19.5908 16.5769 19.5908L18.285 19.5885C22.035 19.4895 23.9884 15.9072 23.9884 12.6863C23.9884 9.2243 21.2752 6.45793 17.8834 6.09306L17.8833 6.09301ZM12.5621 12.0689C12.558 12.0644 12.5565 12.0607 12.5538 12.0569L12.3641 11.8586C12.2602 11.7487 12.1218 11.6943 11.9835 11.6951C11.8451 11.6939 11.7074 11.7487 11.6017 11.8585L11.412 12.0569C11.4082 12.0607 11.4074 12.0652 11.4041 12.0689L8.69695 15.0629C8.48733 15.2819 8.48733 15.6363 8.69695 15.8561L8.88595 15.9843C9.0956 16.2033 9.43533 16.1324 9.64458 15.9134L11.241 14.1337V21.6907C11.241 22.1047 11.577 22.4407 11.991 22.4407C12.405 22.4407 12.741 22.1047 12.741 21.6907V14.1408L14.3902 15.9603C14.5999 16.1793 14.9389 16.2502 15.1481 16.0312L15.3371 15.9029C15.5468 15.6832 15.5468 15.3288 15.3371 15.1098L12.5621 12.0689Z" fill="#0090FF"/>
</svg>
