<svg width="20" height="20" viewBox="0 0 20 20" fill="none" xmlns="http://www.w3.org/2000/svg">
<path d="M19.5827 14.1667L15.416 18.3333L12.4993 15.4167L13.7493 14.1667L15.416 15.8333L18.3327 12.9167L19.5827 14.1667ZM10.916 16.5833C10.5827 16.6667 10.3327 16.6667 9.99935 16.6667C6.33268 16.6667 3.33268 13.6667 3.33268 10C3.33268 6.33333 6.33268 3.33333 9.99935 3.33333C13.666 3.33333 16.666 6.33333 16.666 10C16.666 10.3333 16.666 10.5833 16.5827 10.9167C17.166 11 17.666 11.1667 18.166 11.4167C18.2493 10.9167 18.3327 10.5 18.3327 10C18.3327 5.41666 14.5827 1.66666 9.99935 1.66666C5.41602 1.66666 1.66602 5.41666 1.66602 10C1.66602 14.5833 5.41602 18.3333 9.99935 18.3333C10.4993 18.3333 10.9993 18.25 11.416 18.1667C11.166 17.75 10.9993 17.1667 10.916 16.5833ZM12.9993 11.75L10.416 10.25V5.83333H9.16602V10.8333L12.0827 12.5833C12.3327 12.25 12.666 12 12.9993 11.75Z" fill="#848484"/>
</svg>
