<svg width="18" height="18" viewBox="0 0 18 18" fill="none" xmlns="http://www.w3.org/2000/svg">
<path d="M0.75 9L0.015 8.853C0.00517347 8.90139 0.000149108 8.95063 0 9H0.75ZM17.25 9H18C17.9999 8.95063 17.9948 8.90139 17.985 8.853L17.25 9ZM13.125 9V8.25C12.962 8.24991 12.8034 8.30293 12.6732 8.40105C12.543 8.49916 12.4483 8.63702 12.4035 8.79375L13.125 9ZM4.875 9L5.59575 8.79375C5.55096 8.63714 5.45639 8.49937 5.32636 8.40127C5.19633 8.30317 5.03789 8.25007 4.875 8.25V9ZM17.235 5.103C17.1903 4.91376 17.0739 4.74926 16.9103 4.6442C16.7467 4.53914 16.5486 4.50174 16.358 4.53987C16.1673 4.578 15.9989 4.6887 15.8883 4.8486C15.7776 5.00851 15.7334 5.20513 15.765 5.397L17.235 5.103ZM0 11.625C0 11.8239 0.0790178 12.0147 0.21967 12.1553C0.360322 12.296 0.551088 12.375 0.75 12.375C0.948912 12.375 1.13968 12.296 1.28033 12.1553C1.42098 12.0147 1.5 11.8239 1.5 11.625H0ZM2.235 5.397C2.26655 5.20513 2.22235 5.00851 2.11173 4.8486C2.0011 4.6887 1.83269 4.578 1.64203 4.53987C1.45136 4.50174 1.25333 4.53914 1.08971 4.6442C0.926094 4.74926 0.809672 4.91376 0.765 5.103L2.235 5.397ZM7.125 3C6.92609 3 6.73532 3.07902 6.59467 3.21967C6.45402 3.36032 6.375 3.55109 6.375 3.75C6.375 3.94891 6.45402 4.13968 6.59467 4.28033C6.73532 4.42098 6.92609 4.5 7.125 4.5V3ZM10.875 4.5C11.0739 4.5 11.2647 4.42098 11.4053 4.28033C11.546 4.13968 11.625 3.94891 11.625 3.75C11.625 3.55109 11.546 3.36032 11.4053 3.21967C11.2647 3.07902 11.0739 3 10.875 3V4.5ZM7.125 6C6.92609 6 6.73532 6.07902 6.59467 6.21967C6.45402 6.36032 6.375 6.55109 6.375 6.75C6.375 6.94891 6.45402 7.13968 6.59467 7.28033C6.73532 7.42098 6.92609 7.5 7.125 7.5V6ZM10.875 7.5C11.0739 7.5 11.2647 7.42098 11.4053 7.28033C11.546 7.13968 11.625 6.94891 11.625 6.75C11.625 6.55109 11.546 6.36032 11.4053 6.21967C11.2647 6.07902 11.0739 6 10.875 6V7.5ZM3.375 6.75C3.375 6.94891 3.45402 7.13968 3.59467 7.28033C3.73532 7.42098 3.92609 7.5 4.125 7.5C4.32391 7.5 4.51468 7.42098 4.65533 7.28033C4.79598 7.13968 4.875 6.94891 4.875 6.75H3.375ZM4.125 0.75V0C3.92609 0 3.73532 0.0790178 3.59467 0.21967C3.45402 0.360322 3.375 0.551088 3.375 0.75H4.125ZM13.875 0.75H14.625C14.625 0.551088 14.546 0.360322 14.4053 0.21967C14.2647 0.0790178 14.0739 0 13.875 0V0.75ZM13.125 6.75C13.125 6.94891 13.204 7.13968 13.3447 7.28033C13.4853 7.42098 13.6761 7.5 13.875 7.5C14.0739 7.5 14.2647 7.42098 14.4053 7.28033C14.546 7.13968 14.625 6.94891 14.625 6.75H13.125ZM17.25 9H16.5V15H18V9.00075L17.25 9ZM16.5 15C16.5 15.3188 16.3328 15.6997 16.0163 16.0163C15.6997 16.3328 15.3188 16.5 15 16.5V18C15.8062 18 16.5503 17.6047 17.0775 17.0775C17.6047 16.5503 18 15.8062 18 15H16.5ZM3 16.5C2.68125 16.5 2.30025 16.3328 1.98375 16.0163C1.6665 15.6997 1.5 15.3188 1.5 15H0C0 15.8062 0.396 16.5503 0.9225 17.0775C1.44975 17.6047 2.19375 18 3 18V16.5ZM1.5 15V9H0V15H1.5ZM9 12.375C10.9102 12.375 12.1365 11.6213 12.8775 10.8225C13.2405 10.4325 13.4775 10.0417 13.626 9.7455C13.7094 9.57802 13.7808 9.40483 13.8397 9.22725C13.8416 9.22152 13.8433 9.21577 13.845 9.21V9.20775L13.8458 9.207L13.125 9C12.8844 8.93238 12.6441 8.86338 12.4042 8.793V8.79075L12.405 8.78925V8.78775L12.4035 8.79525C12.3696 8.89063 12.3297 8.98381 12.2843 9.07425C12.1867 9.27075 12.0247 9.53625 11.7787 9.80175C11.301 10.3162 10.4648 10.875 9 10.875V12.375ZM13.125 9.75H17.25V8.25H13.125V9.75ZM0.75 9.75H4.875V8.25H0.75V9.75ZM4.875 9C4.63431 9.06746 4.39406 9.13646 4.15425 9.207V9.21L4.1565 9.2145C4.16114 9.23111 4.16614 9.24761 4.1715 9.264C4.18125 9.2925 4.194 9.3315 4.212 9.378C4.24725 9.471 4.29975 9.597 4.374 9.7455C4.57136 10.1381 4.82337 10.5007 5.1225 10.8225C5.8635 11.6213 7.08975 12.375 9 12.375V10.875C7.53525 10.875 6.699 10.3162 6.22125 9.8025C6.01929 9.58505 5.8491 9.34012 5.71575 9.075C5.66918 8.98193 5.62859 8.88599 5.59425 8.78775V8.78925L5.595 8.79075V8.79225L5.59575 8.793L4.875 9ZM15 16.5H3V18H15V16.5ZM15.765 5.397L16.515 9.147L17.985 8.853L17.235 5.103L15.765 5.397ZM0 9V11.625H1.5V9H0ZM0.765 5.103L0.015 8.853L1.485 9.147L2.235 5.397L0.765 5.103ZM7.125 4.5H10.875V3H7.125V4.5ZM7.125 7.5H10.875V6H7.125V7.5ZM4.875 6.75V0.75H3.375V6.75H4.875ZM4.125 1.5H13.875V0H4.125V1.5ZM13.125 0.75V6.75H14.625V0.75H13.125Z" fill="#3D414B"/>
</svg>
