<svg width="20" height="20" viewBox="0 0 20 20" fill="none" xmlns="http://www.w3.org/2000/svg">
<path d="M15.8333 18.3333H4.16667C3.72464 18.3333 3.30072 18.1577 2.98816 17.8452C2.67559 17.5326 2.5 17.1087 2.5 16.6667V5.00001C2.5 4.55798 2.67559 4.13405 2.98816 3.82149C3.30072 3.50893 3.72464 3.33334 4.16667 3.33334H5.83333V1.66667H7.5V3.33334H12.5V1.66667H14.1667V3.33334H15.8333C16.2754 3.33334 16.6993 3.50893 17.0118 3.82149C17.3244 4.13405 17.5 4.55798 17.5 5.00001V16.6667C17.5 17.1087 17.3244 17.5326 17.0118 17.8452C16.6993 18.1577 16.2754 18.3333 15.8333 18.3333ZM4.16667 8.33334V16.6667H15.8333V8.33334H4.16667ZM4.16667 5.00001V6.66667H15.8333V5.00001H4.16667ZM14.1667 15H12.5V13.3333H14.1667V15ZM10.8333 15H9.16667V13.3333H10.8333V15ZM7.5 15H5.83333V13.3333H7.5V15ZM14.1667 11.6667H12.5V10H14.1667V11.6667ZM10.8333 11.6667H9.16667V10H10.8333V11.6667ZM7.5 11.6667H5.83333V10H7.5V11.6667Z" fill="#848484"/>
</svg>
