<svg width="24" height="24" viewBox="0 0 24 24" fill="none" xmlns="http://www.w3.org/2000/svg">
<g clip-path="url(#clip0_33_3321)">
<path d="M20.2067 8.66666V8.45333C20.1613 6.64732 19.4032 4.93264 18.0979 3.6836C16.7927 2.43457 15.0463 1.75263 13.2401 1.78666C11.8948 1.77568 10.5751 2.15367 9.43968 2.87515C8.30426 3.59662 7.4015 4.63083 6.84006 5.85333C5.23954 6.04269 3.7684 6.8259 2.71769 8.04799C1.66699 9.27009 1.11325 10.842 1.16605 12.4529C1.21885 14.0637 1.87434 15.596 3.00282 16.7467C4.1313 17.8973 5.65058 18.5825 7.26006 18.6667C7.10755 18.2353 7.10755 17.7647 7.26006 17.3333C5.97497 17.2314 4.77618 16.6465 3.90484 15.6965C3.0335 14.7464 2.55427 13.5016 2.56356 12.2125C2.57285 10.9235 3.06998 9.68571 3.95492 8.74831C4.83987 7.81091 6.04697 7.24342 7.33339 7.15999H7.78006L7.93339 6.73999C8.34687 5.66608 9.08004 4.74498 10.0338 4.10117C10.9877 3.45735 12.1161 3.12184 13.2667 3.13999C14.7194 3.10586 16.1267 3.6473 17.1819 4.64632C18.2372 5.64533 18.8547 7.02094 18.9001 8.47333C18.9092 8.65099 18.9092 8.829 18.9001 9.00666L18.8467 9.48666L19.2801 9.68666C20.1182 10.0642 20.8007 10.719 21.2127 11.5407C21.6247 12.3624 21.7412 13.301 21.5424 14.1985C21.3437 15.096 20.8419 15.8976 20.1214 16.4686C19.401 17.0395 18.5059 17.3449 17.5867 17.3333H16.7267C16.8792 17.7647 16.8792 18.2353 16.7267 18.6667H17.5801C18.7657 18.6752 19.9204 18.2883 20.8616 17.5673C21.8029 16.8463 22.477 15.8321 22.7775 14.6852C23.078 13.5382 22.9878 12.3238 22.521 11.2339C22.0542 10.1439 21.2376 9.24062 20.2001 8.66666H20.2067Z" fill="#0090FF"/>
<path d="M14.8535 17.38C14.7658 17.3795 14.6788 17.3963 14.5976 17.4295C14.5164 17.4627 14.4425 17.5116 14.3802 17.5733L12.6669 19.2933V11.12C12.6669 10.9432 12.5966 10.7736 12.4716 10.6486C12.3466 10.5236 12.177 10.4533 12.0002 10.4533C11.8234 10.4533 11.6538 10.5236 11.5288 10.6486C11.4038 10.7736 11.3335 10.9432 11.3335 11.12V19.2933L9.6202 17.58C9.49555 17.4536 9.32578 17.3819 9.14825 17.3806C8.97071 17.3794 8.79995 17.4487 8.67353 17.5733C8.54711 17.698 8.47539 17.8678 8.47414 18.0453C8.47289 18.2228 8.54221 18.3936 8.66687 18.52L12.0002 21.8533L15.3335 18.52C15.4276 18.4268 15.4917 18.3076 15.5177 18.1778C15.5438 18.048 15.5306 17.9133 15.4798 17.791C15.429 17.6687 15.343 17.5643 15.2326 17.4911C15.1223 17.4179 14.9926 17.3792 14.8602 17.38H14.8535Z" fill="#0090FF"/>
</g>
<defs>
<clipPath id="clip0_33_3321">
<rect width="24" height="24" fill="white"/>
</clipPath>
</defs>
</svg>
