<svg width="24" height="24" viewBox="0 0 24 24" fill="none" xmlns="http://www.w3.org/2000/svg">
<path d="M15.5005 2.14748C15.3997 2.04832 15.2736 1.98225 15.1376 1.9574C15.0015 1.93256 14.8615 1.95004 14.7348 2.00767C14.6081 2.06531 14.5003 2.16059 14.4245 2.28179C14.3487 2.40299 14.3083 2.54481 14.3084 2.68979V5.9436C14.1056 5.94835 13.8695 5.96143 13.6061 5.98641C12.7368 6.07085 11.5583 6.29918 10.3351 6.88133C7.8422 8.06761 5.2802 10.6715 4.68557 16.1338C4.66937 16.2833 4.69679 16.4345 4.76419 16.5673C4.8316 16.7001 4.93581 16.8083 5.06305 16.8776C5.19028 16.9469 5.33455 16.9739 5.47677 16.9553C5.61899 16.9366 5.75247 16.873 5.85954 16.773C8.3145 14.4813 10.6149 13.4948 12.2793 13.075C12.9263 12.9079 13.5877 12.8089 14.2534 12.7795L14.3084 12.7777V16.0689C14.3083 16.2139 14.3487 16.3557 14.4245 16.4769C14.5003 16.5981 14.6081 16.6934 14.7348 16.7511C14.8615 16.8087 15.0015 16.8262 15.1376 16.8013C15.2736 16.7765 15.3997 16.7104 15.5005 16.6112L22.2962 9.92167C22.3669 9.85214 22.4232 9.76815 22.4616 9.67487C22.5001 9.58159 22.52 9.48102 22.52 9.37936C22.52 9.27771 22.5001 9.17713 22.4616 9.08385C22.4232 8.99058 22.3669 8.90658 22.2962 8.83706L15.5005 2.14748ZM14.9347 7.44206L14.946 7.44325H14.9472H14.9466C15.045 7.45346 15.1443 7.44193 15.2381 7.40941C15.332 7.37688 15.4183 7.32408 15.4916 7.25439C15.5648 7.18471 15.6233 7.0997 15.6634 7.00482C15.7035 6.90995 15.7242 6.80731 15.7241 6.70353V4.40529L20.7768 9.37936L15.7241 14.3534V12.0552C15.7241 11.6806 15.467 11.3654 15.104 11.3179H15.1023L15.1001 11.3173L15.0944 11.3167L15.0786 11.3149C15.0013 11.307 14.9239 11.301 14.8464 11.297C14.6324 11.2864 14.4182 11.2852 14.2042 11.2935C13.6571 11.3137 12.8847 11.3946 11.9485 11.63C10.4308 12.0124 8.49459 12.802 6.41113 14.3968C7.25267 10.7815 9.16511 9.07016 10.919 8.2353C11.9616 7.73938 12.9775 7.54077 13.7364 7.46704C14.1147 7.43017 14.425 7.42541 14.6374 7.42898C14.7366 7.43056 14.8357 7.43492 14.9347 7.44206ZM4.53946 2.83844C3.60074 2.83844 2.70046 3.22999 2.03668 3.92696C1.37291 4.62393 1 5.56922 1 6.55487V19.3394C1 20.3251 1.37291 21.2703 2.03668 21.9673C2.70046 22.6643 3.60074 23.0558 4.53946 23.0558H16.7152C17.6539 23.0558 18.5542 22.6643 19.218 21.9673C19.8818 21.2703 20.2547 20.3251 20.2547 19.3394V18.0015C20.2547 17.8044 20.1801 17.6153 20.0473 17.4759C19.9146 17.3365 19.7345 17.2582 19.5468 17.2582C19.359 17.2582 19.179 17.3365 19.0462 17.4759C18.9135 17.6153 18.8389 17.8044 18.8389 18.0015V19.3394C18.8389 19.9308 18.6151 20.498 18.2169 20.9161C17.8186 21.3343 17.2784 21.5693 16.7152 21.5693H4.53946C3.97623 21.5693 3.43606 21.3343 3.03779 20.9161C2.63953 20.498 2.41578 19.9308 2.41578 19.3394V6.55487C2.41578 5.96348 2.63953 5.39631 3.03779 4.97813C3.43606 4.55995 3.97623 4.32502 4.53946 4.32502H9.21154C9.39929 4.32502 9.57934 4.24671 9.7121 4.10731C9.84486 3.96792 9.91944 3.77886 9.91944 3.58173C9.91944 3.3846 9.84486 3.19554 9.7121 3.05615C9.57934 2.91675 9.39929 2.83844 9.21154 2.83844H4.53946Z" fill="black"/>
</svg>
