<svg width="336" height="250" viewBox="0 0 336 250" fill="none" xmlns="http://www.w3.org/2000/svg">
<path d="M335.516 219.696H0V219.864H335.516V219.696Z" fill="#EBEBEB"/>
<path d="M301.898 230.493H279.674V230.661H301.898V230.493Z" fill="#EBEBEB"/>
<path d="M222.261 232.318H216.43V232.486H222.261V232.318Z" fill="#EBEBEB"/>
<path d="M279.002 224.266H266.125V224.434H279.002V224.266Z" fill="#EBEBEB"/>
<path d="M64.185 225.393H35.2031V225.561H64.185V225.393Z" fill="#EBEBEB"/>
<path d="M74.4117 225.393H70.1641V225.561H74.4117V225.393Z" fill="#EBEBEB"/>
<path d="M151.083 228.225H88.2207V228.393H151.083V228.225Z" fill="#EBEBEB"/>
<path d="M159.035 189.768H29.4655C28.4505 189.766 27.4776 189.362 26.7605 188.643C26.0434 187.925 25.6406 186.952 25.6406 185.936V3.79805C25.6495 2.78883 26.0561 1.82385 26.7723 1.11272C27.4884 0.401585 28.4563 0.00172884 29.4655 0H159.035C160.051 0 161.026 0.403685 161.745 1.12225C162.463 1.84081 162.867 2.81539 162.867 3.8316V185.936C162.867 186.953 162.463 187.927 161.745 188.646C161.026 189.364 160.051 189.768 159.035 189.768ZM29.4655 0.134207C28.495 0.135985 27.5648 0.522778 26.8791 1.20969C26.1935 1.8966 25.8084 2.8275 25.8084 3.79805V185.936C25.8084 186.907 26.1935 187.838 26.8791 188.525C27.5648 189.212 28.495 189.599 29.4655 189.6H159.035C160.006 189.599 160.937 189.212 161.624 188.525C162.311 187.839 162.697 186.908 162.699 185.936V3.79805C162.697 2.82688 162.311 1.896 161.624 1.20928C160.937 0.52256 160.006 0.135981 159.035 0.134207H29.4655Z" fill="#EBEBEB"/>
<path d="M304.185 189.768H174.609C173.593 189.766 172.62 189.362 171.902 188.644C171.183 187.926 170.779 186.952 170.777 185.936V3.79805C170.788 2.78822 171.196 1.82325 171.913 1.1123C172.631 0.401351 173.599 0.00170999 174.609 0H304.185C305.193 0.00349239 306.16 0.404129 306.874 1.11507C307.589 1.82602 307.995 2.78999 308.004 3.79805V185.936C308.004 186.95 307.602 187.923 306.886 188.641C306.17 189.359 305.199 189.765 304.185 189.768ZM174.609 0.134207C173.638 0.135981 172.707 0.52256 172.02 1.20928C171.333 1.896 170.947 2.82688 170.945 3.79805V185.936C170.947 186.908 171.333 187.839 172.02 188.525C172.707 189.212 173.638 189.599 174.609 189.6H304.185C305.157 189.599 306.087 189.212 306.774 188.525C307.461 187.839 307.847 186.908 307.849 185.936V3.79805C307.847 2.82688 307.461 1.896 306.774 1.20928C306.087 0.52256 305.157 0.135981 304.185 0.134207H174.609Z" fill="#EBEBEB"/>
<path d="M284.089 69.9082H48.0332V79.9737H284.089V69.9082Z" fill="#E6E6E6"/>
<path d="M284.39 68.848H282.082V81.0406H284.39V68.848Z" fill="#E0E0E0"/>
<path d="M206.375 68.848H204.066V81.0406H206.375V68.848Z" fill="#E0E0E0"/>
<path d="M128.363 68.848H126.055V81.0406H128.363V68.848Z" fill="#E0E0E0"/>
<path d="M50.3416 68.848H48.0332V81.0406H50.3416V68.848Z" fill="#E0E0E0"/>
<path d="M253.033 68.848H237.184V81.0406H253.033V68.848Z" fill="#E0E0E0"/>
<path d="M246.437 53.8034H243.779V70.4383H246.437V53.8034Z" fill="#E0E0E0"/>
<path d="M249.913 57.609C252.565 54.957 252.565 50.6573 249.913 48.0053C247.261 45.3533 242.962 45.3533 240.31 48.0053C237.658 50.6573 237.658 54.957 240.31 57.609C242.962 60.261 247.261 60.261 249.913 57.609Z" fill="#E0E0E0"/>
<path d="M249.933 52.8103C249.931 53.7642 249.647 54.6964 249.116 55.4889C248.585 56.2815 247.831 56.8988 246.95 57.263C246.068 57.6271 245.098 57.7217 244.163 57.5348C243.227 57.3479 242.368 56.8878 241.694 56.2128C241.02 55.5378 240.561 54.6781 240.375 53.7424C240.19 52.8066 240.286 51.8369 240.651 50.9557C241.016 50.0745 241.635 49.3214 242.428 48.7915C243.221 48.2617 244.154 47.9789 245.108 47.9789C245.742 47.9789 246.37 48.1039 246.956 48.3468C247.542 48.5896 248.074 48.9456 248.522 49.3944C248.97 49.8431 249.325 50.3757 249.567 50.9619C249.809 51.548 249.934 52.1761 249.933 52.8103Z" fill="#EBEBEB"/>
<path d="M284.089 90.0392H48.0332V100.105H284.089V90.0392Z" fill="#E6E6E6"/>
<path d="M284.39 88.9789H282.082V101.172H284.39V88.9789Z" fill="#E0E0E0"/>
<path d="M206.375 88.9789H204.066V101.172H206.375V88.9789Z" fill="#E0E0E0"/>
<path d="M128.363 88.9789H126.055V101.172H128.363V88.9789Z" fill="#E0E0E0"/>
<path d="M50.3416 88.9789H48.0332V101.172H50.3416V88.9789Z" fill="#E0E0E0"/>
<path d="M48.0332 110.841V120.907H216.201C218.299 120.907 220.378 121.32 222.317 122.124C224.255 122.927 226.017 124.104 227.501 125.589C228.984 127.073 230.161 128.835 230.964 130.774C231.766 132.714 232.179 134.792 232.178 136.891V219.166H242.244V136.75C242.244 129.878 239.514 123.288 234.655 118.43C229.796 113.571 223.206 110.841 216.335 110.841H48.0332Z" fill="#E6E6E6"/>
<path d="M206.375 109.781H204.066V121.974H206.375V109.781Z" fill="#E0E0E0"/>
<path d="M128.363 109.781H126.055V121.974H128.363V109.781Z" fill="#E0E0E0"/>
<path d="M50.3416 109.781H48.0332V121.974H50.3416V109.781Z" fill="#E0E0E0"/>
<path d="M243.303 219.468V217.16H231.11V219.468H243.303Z" fill="#E0E0E0"/>
<path d="M243.311 148.835V146.527H231.118V148.835H243.311Z" fill="#E0E0E0"/>
<path d="M167.757 250C239.613 250 297.864 246.599 297.864 242.404C297.864 238.209 239.613 234.808 167.757 234.808C95.9011 234.808 37.6504 238.209 37.6504 242.404C37.6504 246.599 95.9011 250 167.757 250Z" fill="#F5F5F5"/>
<path d="M182.849 227.856H190.727C191.384 227.856 192.014 228.117 192.478 228.581C192.942 229.046 193.203 229.675 193.203 230.332V232.345H180.373V230.332C180.373 229.675 180.634 229.046 181.098 228.581C181.563 228.117 182.192 227.856 182.849 227.856Z" stroke="#263238" stroke-width="2" stroke-miterlimit="10"/>
<path d="M173.28 230.58H201.464C201.882 230.58 202.283 230.746 202.579 231.042C202.874 231.338 203.04 231.739 203.04 232.157V243.565H171.703V232.177C171.701 231.969 171.739 231.761 171.817 231.568C171.896 231.374 172.011 231.198 172.158 231.049C172.305 230.901 172.479 230.783 172.672 230.702C172.865 230.622 173.071 230.58 173.28 230.58Z" fill="#263238"/>
<path opacity="0.2" d="M173.28 230.58H188.754C189.172 230.58 189.574 230.746 189.869 231.042C190.165 231.338 190.331 231.739 190.331 232.157V243.565H171.703V232.177C171.701 231.969 171.739 231.761 171.817 231.568C171.896 231.374 172.011 231.198 172.158 231.049C172.305 230.901 172.479 230.783 172.672 230.702C172.865 230.622 173.071 230.58 173.28 230.58Z" fill="white"/>
<path opacity="0.2" d="M203.067 234.412H171.703V235.09H203.067V234.412Z" fill="black"/>
<path d="M91.0215 108.707L93.8734 105.352C93.8734 105.352 93.2023 102.574 93.8734 101.903C94.5444 101.232 95.8865 99.0579 97.2822 98.7492C98.678 98.4405 101.758 101.675 100.671 103.245C99.5839 104.815 98.6578 106.258 97.8526 106.271H97.0608L93.4775 109.747L91.0215 108.707Z" fill="#E4897B"/>
<path d="M71.131 115.485C74.909 115.995 81.0154 116.901 83.6727 115.122C86.3299 113.344 92.4699 106.292 92.4699 106.292L95.7512 108.164C95.7512 108.164 87.7861 120.356 85.5314 121.296C83.2767 122.235 70.0977 122.209 70.0977 122.209L71.131 115.485Z" fill="#2696F0"/>
<path opacity="0.6" d="M95.7317 108.164C95.7317 108.164 87.7666 120.356 85.5119 121.289C84.2839 121.806 79.8081 122.034 75.9899 122.128C72.8025 122.222 70.0781 122.209 70.0781 122.209L70.8297 117.33L71.1115 115.485C74.8894 115.995 80.9958 116.907 83.6531 115.122C86.3104 113.337 92.4504 106.298 92.4504 106.298L95.7317 108.164Z" fill="white"/>
<path opacity="0.2" d="M75.9899 122.128C72.8025 122.222 70.0781 122.209 70.0781 122.209L70.8297 117.33C72.905 118.499 74.6735 120.143 75.9899 122.128Z" fill="black"/>
<path d="M52.1941 106.292C51.3039 106.766 50.5639 107.48 50.0576 108.353C49.5514 109.225 49.2989 110.222 49.3288 111.23C49.2751 114.935 47.2821 120.242 47.8123 123.98C48.3424 127.718 52.2344 127.248 53.4691 122.537C54.7038 117.827 52.5095 114.747 53.0128 111.928C53.1985 111.056 53.5596 110.23 54.074 109.501C54.5885 108.772 55.2456 108.155 56.0056 107.687L52.1941 106.292Z" fill="#263238"/>
<path d="M89.0947 238.398L85.3771 239.055L83.8539 233.989L82.4648 229.332L86.7527 227.836L87.9942 233.432L89.0947 238.398Z" fill="#E4897B"/>
<path opacity="0.2" d="M88.0134 233.546L83.8732 234.09L82.4707 229.386L86.7519 227.863L88.0134 233.546Z" fill="black"/>
<path d="M64.2714 240.116H60.5002L59.8762 234.794L59.3125 229.943L63.795 229.198L64.05 234.976L64.2714 240.116Z" fill="#E4897B"/>
<path opacity="0.2" d="M64.05 235.023L59.8762 234.841L59.3125 229.963L63.795 229.211L64.05 235.023Z" fill="black"/>
<path d="M88.361 230.594L82.2479 231.674C76.0811 216.307 71.6926 203.491 68.5991 192.828C66.9283 187.084 65.5325 181.977 64.5729 177.448L64.7541 194.177V231.862H58.7148C43.6166 159.947 54.3128 143.554 54.3128 143.554L72.377 140.548C73.091 143.895 73.5974 147.284 73.8936 150.694L74.7055 156.686L81.7648 193.164L88.361 230.594Z" fill="#263238"/>
<path d="M59.617 237.546C59.617 237.15 64.4686 237.458 64.4686 237.458C64.4686 237.458 67.448 240.491 70.3468 241.176C73.2457 241.86 71.6218 243.592 68.3874 243.592H60.3954C58.0871 243.585 59.5231 241.626 59.617 237.546Z" fill="#263238"/>
<path d="M67.0171 238.693C66.3157 238.608 65.6345 238.401 65.004 238.082C64.9859 238.075 64.9698 238.064 64.9571 238.049C64.944 238.017 64.944 237.981 64.9571 237.948C64.9571 237.901 65.3798 236.774 66.0374 236.499C66.1365 236.454 66.244 236.431 66.3528 236.431C66.4616 236.431 66.5691 236.454 66.6682 236.499C66.8829 236.606 66.9903 236.74 66.9836 236.908C66.9769 237.076 66.6212 237.418 66.232 237.626C66.5986 237.565 66.9748 237.607 67.3191 237.747C67.3821 237.781 67.4373 237.828 67.4812 237.885C67.525 237.941 67.5567 238.006 67.5741 238.076C67.6101 238.163 67.6185 238.26 67.5981 238.352C67.5777 238.444 67.5295 238.528 67.46 238.592C67.3286 238.676 67.172 238.712 67.0171 238.693ZM65.4536 238.022C66.1649 238.324 67.0507 238.592 67.2855 238.405C67.2855 238.405 67.3661 238.337 67.2855 238.143C67.2759 238.107 67.2591 238.074 67.236 238.045C67.2129 238.016 67.1841 237.992 67.1513 237.975C66.5935 237.829 66.0065 237.839 65.4536 238.002V238.022ZM66.3193 236.68C66.2524 236.68 66.1862 236.694 66.1247 236.72C65.7428 236.969 65.451 237.333 65.2926 237.76C66.0106 237.492 66.7017 237.089 66.7152 236.895C66.7152 236.828 66.6078 236.761 66.5407 236.734C66.4726 236.696 66.3971 236.673 66.3193 236.667V236.68Z" fill="#2696F0"/>
<path d="M84.3763 237.546C84.3763 237.15 89.2279 237.458 89.2279 237.458C89.2279 237.458 92.2073 240.491 95.0994 241.176C97.9916 241.86 96.3811 243.592 93.14 243.592H85.1413C82.8396 243.585 84.2757 241.626 84.3763 237.546Z" fill="#263238"/>
<path d="M91.7766 238.693C91.0754 238.607 90.3943 238.401 89.7635 238.082L89.7233 238.049C89.7164 238.033 89.7129 238.016 89.7129 237.999C89.7129 237.981 89.7164 237.964 89.7233 237.948C89.7233 237.901 90.146 236.774 90.8036 236.499C90.9016 236.454 91.008 236.431 91.1156 236.431C91.2233 236.431 91.3297 236.454 91.4277 236.499C91.6491 236.606 91.7565 236.74 91.7498 236.908C91.7431 237.076 91.3874 237.418 90.9915 237.626C91.3581 237.565 91.7343 237.607 92.0786 237.747C92.1433 237.78 92.2002 237.826 92.2454 237.883C92.2906 237.939 92.3229 238.005 92.3403 238.076C92.3755 238.164 92.3829 238.261 92.3612 238.353C92.3396 238.446 92.2901 238.529 92.2195 238.592C92.088 238.676 91.9315 238.712 91.7766 238.693ZM90.2131 238.022C90.9244 238.324 91.8102 238.592 92.0383 238.405C92.0383 238.405 92.1188 238.337 92.0719 238.143C92.0476 238.071 91.9973 238.011 91.9309 237.975C91.3669 237.825 90.7721 237.834 90.2131 238.002V238.022ZM91.0787 236.68C91.0097 236.68 90.9413 236.694 90.8774 236.72C90.4993 236.971 90.2104 237.335 90.0521 237.76C90.7633 237.492 91.4612 237.089 91.4746 236.895C91.4746 236.828 91.3673 236.761 91.3002 236.734C91.2321 236.695 91.1565 236.673 91.0787 236.667V236.68Z" fill="#2696F0"/>
<path opacity="0.2" d="M68.6014 192.828C66.9306 187.084 65.6287 181.977 64.6289 177.448C64.7139 172.082 65.1037 166.725 65.7965 161.404C65.7965 161.404 68.4471 182.098 68.6014 192.828Z" fill="black"/>
<path d="M59.6348 146.493L69.1097 145.654V142.581L59.6348 143.4V146.493Z" fill="black"/>
<path d="M58.8034 143.474L54.0458 143.883L53.623 147.03L58.8034 146.567V143.474Z" fill="black"/>
<path d="M69.8359 142.521V145.594L71.9631 145.406V142.339L69.8359 142.521Z" fill="black"/>
<path d="M66.6078 142.87C66.4942 142.766 66.3605 142.687 66.2151 142.637C66.0696 142.588 65.9155 142.569 65.7623 142.581L63.5211 142.776C63.244 142.799 62.986 142.926 62.7982 143.131C62.6105 143.337 62.5068 143.605 62.5078 143.883V145.312C62.5079 145.466 62.5402 145.619 62.6026 145.76C62.665 145.901 62.7561 146.027 62.8702 146.131C63.0731 146.323 63.3425 146.429 63.6217 146.426H63.7492L65.9905 146.231C66.2675 146.208 66.5256 146.081 66.7133 145.876C66.9011 145.671 67.0047 145.402 67.0037 145.124V143.702C66.9997 143.543 66.9623 143.387 66.8941 143.244C66.8259 143.1 66.7284 142.973 66.6078 142.87ZM65.9032 145.654L63.6687 145.849C63.5933 145.857 63.5172 145.848 63.4454 145.824C63.3736 145.799 63.3079 145.76 63.2527 145.708C63.198 145.658 63.1544 145.596 63.1243 145.528C63.0943 145.46 63.0786 145.387 63.0782 145.312V143.883C63.0794 143.748 63.1309 143.618 63.2227 143.518C63.3145 143.419 63.44 143.358 63.5748 143.346L65.8093 143.158H65.8563C65.9901 143.16 66.1187 143.21 66.2186 143.299C66.2741 143.35 66.3183 143.413 66.3483 143.482C66.3783 143.551 66.3936 143.626 66.3931 143.702V143.916H66.3059L65.6818 143.963C65.5815 143.972 65.4886 144.02 65.4232 144.096C65.3579 144.173 65.3254 144.272 65.3329 144.373C65.3362 144.423 65.3496 144.472 65.3721 144.516C65.3946 144.561 65.4259 144.601 65.464 144.633C65.5022 144.666 65.5464 144.691 65.5942 144.706C65.642 144.721 65.6923 144.726 65.7422 144.722L66.3663 144.675V145.144C66.3611 145.27 66.312 145.39 66.2273 145.483C66.1427 145.577 66.028 145.637 65.9032 145.654Z" fill="white"/>
<path d="M50.4898 124.879C51.1608 127.094 51.7111 129.013 52.1405 130.724C53.2338 135.032 53.8725 139.442 54.0463 143.883L71.9629 142.339C72.6809 129.717 72.3655 122.779 72.0367 119.31C71.681 115.612 71.1107 115.478 71.1107 115.478C71.1107 115.478 67.0845 115.089 63.6152 115.116C60.9144 115.206 58.2234 115.488 55.5628 115.961C53.6347 116.282 51.726 116.709 49.8456 117.243C49.6213 117.305 49.4123 117.413 49.2315 117.559C49.0508 117.706 48.9022 117.888 48.7951 118.095C48.6881 118.301 48.6248 118.528 48.6092 118.76C48.5937 118.992 48.6263 119.225 48.7049 119.444C48.8995 120.014 49.0806 120.558 49.2551 121.095C49.7114 122.423 50.114 123.698 50.4898 124.879Z" fill="#2696F0"/>
<path opacity="0.6" d="M48.7044 119.444C48.899 120.008 49.0802 120.558 49.2546 121.095C49.3083 121.242 49.3553 121.39 49.409 121.531C49.6103 122.202 49.8183 122.812 50.0129 123.41L50.4759 124.893C50.9792 126.496 51.402 127.939 51.7509 129.261C51.8784 129.771 52.0059 130.268 52.1267 130.744L52.2877 131.375C52.9518 134.05 53.4183 136.771 53.6835 139.514C53.8311 140.93 53.9317 142.346 54.0324 143.883L71.949 142.346C72.667 129.717 72.3449 122.786 72.0161 119.316C71.6537 115.619 71.0901 115.485 71.0901 115.485C71.0901 115.485 67.9161 115.169 64.7555 115.129H63.6148C63.2927 115.129 62.9437 115.129 62.635 115.176C62.3264 115.223 61.8164 115.216 61.4071 115.25C59.522 115.373 57.6448 115.597 55.7838 115.921L55.5758 115.954L54.4417 116.156C52.8984 116.451 51.3684 116.827 49.8519 117.236C49.6267 117.298 49.4169 117.406 49.2353 117.553C49.0538 117.7 48.9045 117.883 48.7968 118.09C48.6891 118.297 48.6253 118.524 48.6094 118.757C48.5935 118.99 48.6258 119.224 48.7044 119.444Z" fill="white"/>
<path d="M61.4471 118.941C57.2665 118.404 56.0117 116.619 56.0117 116.619C58.6959 114.116 56.4613 109.781 56.4613 109.781L61.4941 110.72C61.3766 111.421 61.3116 112.13 61.2995 112.841C61.2592 115.894 62.6415 115.921 62.6415 115.921C63.5206 117.578 61.4471 118.941 61.4471 118.941Z" fill="#E4897B"/>
<path opacity="0.2" d="M61.4956 110.72C61.3782 111.421 61.3132 112.13 61.301 112.841C60.294 112.813 59.3131 112.514 58.4617 111.975C57.6103 111.437 56.9198 110.679 56.4629 109.781L61.4956 110.72Z" fill="black"/>
<path d="M73.3849 143.474L65.3325 144.359L64.4333 141.299L64.1112 144.359L53.019 144.936L53.2606 140.373L53.4284 137.213L53.3344 136.938L52.5292 134.629L51.2676 130.992L50.6704 125.383L49.7578 116.907L51.6166 116.451L53.4619 116.008L54.8241 115.686L62.8564 122.719L64.1112 114.364L65.3727 114.518L67.3858 114.753L70.2914 115.109L73.0359 125.678L72.6199 134.918L72.4589 138.535L72.3985 139.91L73.3849 143.474Z" fill="#2696F0"/>
<path opacity="0.7" d="M72.6216 134.918L72.4606 138.541L53.2623 140.367L53.4301 137.213L53.3361 136.944L58.9057 136.361C58.7581 133.858 58.3018 129.509 56.8926 126.168C55.3715 122.809 53.6111 119.564 51.625 116.458L53.4703 116.015C55.4143 118.613 56.9947 121.464 58.1676 124.49C59.426 128.3 60.4567 132.18 61.2543 136.112L68.8773 135.314C69.1677 131.752 69.089 128.17 68.6424 124.624C68.119 121.215 66.4951 117.068 65.3879 114.518L67.401 114.76C68.6223 117.39 70.1858 121.289 70.4944 124.591C70.7805 128.093 70.8366 131.61 70.6622 135.119L72.6216 134.918Z" fill="white"/>
<path opacity="0.2" d="M52.5306 134.636L51.2691 130.992L50.6719 125.389C50.9784 125.277 51.2954 125.196 51.618 125.148C51.618 125.148 53.7922 130.751 52.5306 134.636Z" fill="black"/>
<path d="M65.0914 102.245C65.0914 102.245 67.1783 94.3673 59.7231 93.8909C50.1139 93.287 47.1479 107.177 56.529 109.258C65.91 111.338 65.0914 102.245 65.0914 102.245Z" fill="#263238"/>
<path d="M65.09 108.707C65.0497 108.855 65.0094 109.003 64.9692 109.137C64.7316 110.01 64.2028 110.775 63.4705 111.306C62.7382 111.837 61.8464 112.101 60.943 112.056C60.6227 112.068 60.3021 112.056 59.9834 112.022L59.3124 111.935C51.8102 110.72 51.4412 97.0448 58.7152 96.6287C63.0836 96.3872 64.6203 98.6418 65.1906 103.144C65.4943 104.99 65.4602 106.874 65.09 108.707Z" fill="#E4897B"/>
<path d="M62.3457 103.071C62.7231 103.703 63.1736 104.288 63.6878 104.815C63.5697 105.003 63.4018 105.155 63.2028 105.253C63.0038 105.351 62.7815 105.393 62.5604 105.372L62.3457 103.071Z" fill="#DE5753"/>
<path d="M59.6496 102.863C59.6496 103.218 59.5087 103.534 59.2671 103.534C59.0256 103.534 58.8108 103.272 58.784 102.916C58.7571 102.561 58.9316 102.245 59.1665 102.245C59.4013 102.245 59.6228 102.5 59.6496 102.863Z" fill="#263238"/>
<path d="M59.0508 102.272L59.8023 101.903C59.8023 101.903 59.487 102.588 59.0508 102.272Z" fill="#263238"/>
<path d="M64.1107 102.433C64.1107 102.796 63.9631 103.104 63.7282 103.104C63.4934 103.104 63.2719 102.849 63.2384 102.494C63.2048 102.138 63.386 101.823 63.6209 101.823C63.8557 101.823 64.0772 102.078 64.1107 102.433Z" fill="#263238"/>
<path d="M63.5273 101.843L64.2789 101.48C64.2789 101.48 63.9434 102.165 63.5273 101.843Z" fill="#263238"/>
<path d="M59.4408 99.843C59.0931 99.8196 58.7446 99.8764 58.4223 100.009C58.1001 100.142 57.8126 100.347 57.582 100.608" stroke="#263238" stroke-width="0.72468" stroke-linecap="round" stroke-linejoin="round"/>
<path d="M62.6152 99.4806C62.9093 99.3877 63.2207 99.3636 63.5255 99.4102C63.8304 99.4567 64.1204 99.5726 64.3733 99.749" stroke="#263238" stroke-width="0.72468" stroke-linecap="round" stroke-linejoin="round"/>
<path d="M54.3555 104.278C54.3555 104.278 56.2008 100.574 55.7445 97.8165C55.7445 97.8165 64.2197 93.7903 65.139 102.574C65.139 102.574 65.5617 94.7163 58.026 94.9511C50.4903 95.186 51.1345 106.191 55.1943 109.258C55.1607 109.258 53.1946 106.6 54.3555 104.278Z" fill="#263238"/>
<path d="M55.0993 105.164C55.0294 104.661 54.7626 104.206 54.3575 103.899C53.9524 103.592 53.4422 103.458 52.9386 103.527C51.5965 103.748 51.0933 106.567 54.5021 107.05C55.0255 107.117 55.2402 106.634 55.0993 105.164Z" fill="#E4897B"/>
<path d="M60.2656 106.178C60.4139 106.613 60.6935 106.992 61.066 107.263C61.4385 107.533 61.8856 107.681 62.3458 107.687" stroke="#263238" stroke-width="0.5" stroke-linecap="round" stroke-linejoin="round"/>
<path d="M61.7374 103.272C61.7387 103.628 61.6342 103.977 61.4371 104.274C61.24 104.57 60.9592 104.802 60.6303 104.939C60.3014 105.076 59.9393 105.112 59.5898 105.043C59.2403 104.974 58.9193 104.802 58.6674 104.55C58.4154 104.298 58.244 103.977 58.1749 103.628C58.1057 103.278 58.1419 102.916 58.2788 102.587C58.4157 102.258 58.6473 101.978 58.9441 101.781C59.2408 101.583 59.5894 101.479 59.9457 101.48C60.4209 101.48 60.8766 101.669 61.2126 102.005C61.5486 102.341 61.7374 102.797 61.7374 103.272Z" stroke="#263238" stroke-width="0.5" stroke-linecap="round" stroke-linejoin="round"/>
<path d="M66.4329 102.554C66.4316 102.908 66.3254 103.254 66.1277 103.548C65.93 103.841 65.6498 104.07 65.3223 104.204C64.9948 104.339 64.6347 104.374 64.2876 104.304C63.9405 104.234 63.6219 104.063 63.372 103.812C63.1221 103.561 62.9521 103.242 62.8835 102.894C62.815 102.547 62.8508 102.187 62.9866 101.86C63.1224 101.533 63.3521 101.254 63.6466 101.057C63.9411 100.86 64.2872 100.756 64.6413 100.756C64.8774 100.755 65.1113 100.801 65.3295 100.891C65.5477 100.981 65.7459 101.113 65.9125 101.281C66.0792 101.448 66.211 101.647 66.3003 101.865C66.3896 102.084 66.4347 102.318 66.4329 102.554Z" stroke="#263238" stroke-width="0.5" stroke-linecap="round" stroke-linejoin="round"/>
<path d="M61.7363 102.896C61.7363 102.896 62.4074 102.131 62.9039 102.735" stroke="#263238" stroke-width="0.5" stroke-linecap="round" stroke-linejoin="round"/>
<path d="M58.1527 103.272L54.207 103.547" stroke="#263238" stroke-width="0.5" stroke-linecap="round" stroke-linejoin="round"/>
<path d="M57.0917 94.3539C58.9968 94.2931 60.8893 94.684 62.6143 95.4947C64.9965 96.7898 65.1106 98.776 65.1106 98.776L64.2785 98.4674L62.6143 97.1253C62.8359 97.5378 62.9513 97.9991 62.9499 98.4674C62.9499 98.4674 62.4063 97.3803 61.7353 97.1991C61.8266 97.4723 61.8379 97.766 61.7677 98.0454C61.6976 98.3248 61.5489 98.5783 61.3394 98.776C61.1893 98.2072 60.8481 97.7072 60.3731 97.3602C60.3731 97.3602 60.5006 97.9842 59.2525 98.776C59.2693 98.4821 59.2131 98.1886 59.089 97.9217C58.9649 97.6548 58.7767 97.4227 58.5412 97.2461C58.5412 97.2461 57.944 98.3801 57.1253 98.5479C57.1253 98.5479 57.7359 97.9842 57.6152 97.642C56.9324 98.2554 56.0817 98.6503 55.1726 98.776C53.7768 98.8901 51.9583 95.998 57.0917 94.3539Z" fill="#263238"/>
<path d="M53.0137 99.031C53.0137 99.031 55.879 111.036 61.8981 112.284L63.0792 111.928C63.0792 111.928 59.8783 111.982 57.6438 108.399C55.4093 104.815 53.886 98.8431 53.886 98.8431L53.0137 99.031Z" fill="black"/>
<path d="M66.7408 96.8569C63.748 100.554 55.8902 97.8567 53.1121 99.9839C50.3341 102.111 50.7769 104.01 50.7769 104.044C48.8377 104.641 49.8912 101.453 49.8912 101.453C47.8378 95.2061 51.6359 91.6027 57.4671 90.9182C62.9293 90.2472 64.4325 95.7765 64.4325 95.7765L66.7408 96.8569Z" fill="#2696F0"/>
<path opacity="0.2" d="M64.4207 95.743C63.1927 97.9238 55.5094 97.3602 52.6374 98.3264C49.7654 99.2927 49.8795 101.42 49.8795 101.42C47.8261 95.1726 51.6241 91.5691 57.4554 90.8847C62.931 90.2405 64.4207 95.743 64.4207 95.743Z" fill="black"/>
<path d="M53.435 92.3274C55.7567 91.4819 58.3469 93.448 59.3602 94.8773C60.3734 96.3066 62.4872 95.7765 62.5274 94.2063C62.5677 92.6361 61.1049 89.5963 61.1049 89.5963C61.1049 89.5963 51.489 89.4218 50.2207 94.8102C50.9653 93.629 52.1039 92.7495 53.435 92.3274Z" fill="#2696F0"/>
<path d="M60.5352 112.331C61.0053 111.827 61.6192 111.48 62.2933 111.338C62.7799 111.197 63.2963 111.197 63.783 111.338C63.6308 111.616 63.422 111.86 63.1701 112.053C62.9181 112.246 62.6286 112.384 62.3201 112.458C62.0354 112.587 61.7231 112.643 61.4115 112.621C61.0998 112.599 60.7986 112.499 60.5352 112.331Z" fill="#263238"/>
<path d="M56.2133 115.122L59.6557 116.78L61.3064 118.31L61.7023 116.713L61.4943 114.062L64.2187 115.122L65.1112 118.572L63.494 117.645L62.2861 121.296L58.8034 118.941L58.0385 120.43L54.8242 116.451L56.2133 115.122Z" fill="#2696F0"/>
<path opacity="0.5" d="M54.8242 116.451L58.0385 120.43L58.8034 118.941L62.2861 121.296L63.494 117.645L65.1112 118.572L64.2187 115.122L61.4943 114.062L61.7023 116.713L61.3064 118.31L59.6557 116.78L56.2133 115.122L54.8242 116.451Z" fill="white"/>
<path opacity="0.2" d="M58.0391 120.43L58.804 118.941L62.2867 121.296L58.9785 117.679L58.0391 120.43Z" fill="black"/>
<path opacity="0.2" d="M62.2871 121.296L63.495 117.645L65.1122 118.572L63.2333 116.277L62.2871 121.296Z" fill="black"/>
<path d="M70.7401 130.18C70.7401 130.18 70.1093 140.206 79.0743 139.575C86.912 139.051 94.904 112.378 96.7761 105.715C96.8979 105.284 97.1574 104.905 97.5149 104.636C97.8724 104.367 98.3083 104.223 98.7557 104.225H99.9837" stroke="#263238" stroke-miterlimit="10"/>
<path d="M72.4001 130.979H63.6699L65.0925 117.323H73.8294L72.4001 130.979Z" fill="#263238"/>
<path opacity="0.2" d="M65.6293 130.979H63.6699L65.0925 117.323H67.0519L65.6293 130.979Z" fill="white"/>
<path d="M100.695 104.265C100.697 104.409 100.655 104.549 100.577 104.67C100.498 104.79 100.385 104.884 100.253 104.939C100.12 104.995 99.9746 105.011 99.8336 104.983C99.6925 104.956 99.5628 104.888 99.4607 104.787C99.3587 104.686 99.289 104.556 99.2605 104.416C99.232 104.275 99.246 104.129 99.3006 103.996C99.3553 103.863 99.4481 103.75 99.5675 103.67C99.6868 103.59 99.8272 103.547 99.9708 103.547C100.162 103.547 100.345 103.623 100.481 103.757C100.617 103.891 100.694 104.074 100.695 104.265Z" fill="#263238"/>
<path d="M58.9785 132.053L61.7365 130.18C61.7365 130.18 61.8841 128.637 62.1861 128.322C62.488 128.006 67.0309 126.651 67.9704 126.731C68.9098 126.812 69.0776 130.18 68.1918 131.066C67.306 131.952 63.6825 132.703 63.414 132.408L60.5353 134.207L58.9785 132.053Z" fill="#E4897B"/>
<path d="M48.9462 117.9C46.3695 119.276 43.3163 138.783 47.1613 141.937C51.0063 145.091 62.2864 133.737 62.2864 133.737L60.4209 129.711C60.4209 129.711 53.5294 135.529 51.7713 134.542C50.0132 133.556 51.7713 128.04 51.7713 128.04C52.0541 126.14 52.0541 124.209 51.7713 122.309C51.6321 121.419 51.309 120.567 50.8227 119.808C50.3363 119.049 49.6973 118.399 48.9462 117.9Z" fill="#2696F0"/>
<path opacity="0.6" d="M48.9462 117.9C46.3695 119.276 43.3163 138.783 47.1613 141.937C51.0063 145.091 62.2864 133.737 62.2864 133.737L60.4209 129.711C60.4209 129.711 53.5294 135.529 51.7713 134.542C50.0132 133.556 51.7713 128.04 51.7713 128.04C52.0541 126.14 52.0541 124.209 51.7713 122.309C51.6321 121.419 51.309 120.567 50.8227 119.808C50.3363 119.049 49.6973 118.399 48.9462 117.9Z" fill="white"/>
<path d="M284.087 165.812C284.087 176.193 281.235 184.601 277.719 184.601H196.705C193.182 184.601 190.33 176.18 190.33 165.812C190.33 155.445 193.182 147.023 196.705 147.023H277.719C281.235 147.01 284.087 155.425 284.087 165.812Z" fill="#2696F0"/>
<path opacity="0.4" d="M284.087 165.812C284.087 176.193 281.235 184.601 277.719 184.601H196.705C193.182 184.601 190.33 176.18 190.33 165.812C190.33 155.445 193.182 147.023 196.705 147.023H277.719C281.235 147.01 284.087 155.425 284.087 165.812Z" fill="white"/>
<path d="M203.657 145.198H196.947C192.82 145.198 189.479 154.358 189.479 165.665C189.479 176.971 192.834 186.124 196.947 186.124H203.657C207.778 186.124 211.119 176.965 211.119 165.665C211.119 154.364 207.778 145.198 203.657 145.198Z" fill="#2696F0"/>
<path opacity="0.4" d="M196.946 186.124C201.067 186.124 204.408 176.964 204.408 165.665C204.408 154.365 201.067 145.205 196.946 145.205C192.825 145.205 189.484 154.365 189.484 165.665C189.484 176.964 192.825 186.124 196.946 186.124Z" fill="white"/>
<path opacity="0.2" d="M203.657 145.198H196.947C192.82 145.198 189.479 154.358 189.479 165.665C189.479 176.971 192.834 186.124 196.947 186.124H203.657C207.778 186.124 211.119 176.965 211.119 165.665C211.119 154.364 207.778 145.198 203.657 145.198Z" fill="white"/>
<path d="M195.605 145.198H188.894C184.768 145.198 181.426 154.358 181.426 165.665C181.426 176.971 184.781 186.124 188.894 186.124H195.605C199.725 186.124 203.067 176.965 203.067 165.665C203.067 154.364 199.725 145.198 195.605 145.198Z" fill="#2696F0"/>
<path opacity="0.4" d="M188.894 186.124C193.015 186.124 196.355 176.964 196.355 165.665C196.355 154.365 193.015 145.205 188.894 145.205C184.772 145.205 181.432 154.365 181.432 165.665C181.432 176.964 184.772 186.124 188.894 186.124Z" fill="white"/>
<path opacity="0.2" d="M195.605 145.198H188.894C184.768 145.198 181.426 154.358 181.426 165.665C181.426 176.971 184.781 186.124 188.894 186.124H195.605C199.725 186.124 203.067 176.965 203.067 165.665C203.067 154.364 199.725 145.198 195.605 145.198Z" fill="white"/>
<path d="M193.499 165.812C193.499 176.193 190.647 184.601 187.131 184.601H126.248C122.725 184.601 119.873 176.18 119.873 165.812C119.873 155.445 122.725 147.023 126.248 147.023H187.131C190.647 147.01 193.499 155.425 193.499 165.812Z" fill="#2696F0"/>
<path opacity="0.4" d="M193.499 165.812C193.499 176.193 190.647 184.601 187.131 184.601H126.248C122.725 184.601 119.873 176.18 119.873 165.812C119.873 155.445 122.725 147.023 126.248 147.023H187.131C190.647 147.01 193.499 155.425 193.499 165.812Z" fill="white"/>
<path d="M142.593 145.198H135.883C131.756 145.198 128.414 154.358 128.414 165.665C128.414 176.971 131.769 186.124 135.883 186.124H142.593C146.713 186.124 150.055 176.965 150.055 165.665C150.055 154.364 146.713 145.198 142.593 145.198Z" fill="#2696F0"/>
<path opacity="0.4" d="M135.884 186.124C140.005 186.124 143.346 176.964 143.346 165.665C143.346 154.365 140.005 145.205 135.884 145.205C131.763 145.205 128.422 154.365 128.422 165.665C128.422 176.964 131.763 186.124 135.884 186.124Z" fill="white"/>
<path opacity="0.2" d="M142.593 145.198H135.883C131.756 145.198 128.414 154.358 128.414 165.665C128.414 176.971 131.769 186.124 135.883 186.124H142.593C146.713 186.124 150.055 176.965 150.055 165.665C150.055 154.364 146.713 145.198 142.593 145.198Z" fill="white"/>
<path d="M134.79 147.01H100.332V184.588H134.79C138.306 184.588 141.158 176.166 141.158 165.799C141.158 155.431 138.306 147.01 134.79 147.01Z" fill="#2696F0"/>
<path opacity="0.4" d="M134.79 147.01H100.332V184.588H134.79C138.306 184.588 141.158 176.166 141.158 165.799C141.158 155.431 138.306 147.01 134.79 147.01Z" fill="white"/>
<path d="M130.052 41.235H92.4473V243.343H130.052V41.235Z" fill="#2696F0"/>
<path opacity="0.4" d="M130.052 41.235H92.4473V243.343H130.052V41.235Z" fill="white"/>
<path d="M130.541 194.143H91.957C91.4382 194.143 91.0176 194.564 91.0176 195.083V200.37C91.0176 200.889 91.4382 201.31 91.957 201.31H130.541C131.06 201.31 131.481 200.889 131.481 200.37V195.083C131.481 194.564 131.06 194.143 130.541 194.143Z" fill="#2696F0"/>
<path d="M130.541 133.079H91.957C91.4382 133.079 91.0176 133.5 91.0176 134.019V139.306C91.0176 139.825 91.4382 140.246 91.957 140.246H130.541C131.06 140.246 131.481 139.825 131.481 139.306V134.019C131.481 133.5 131.06 133.079 130.541 133.079Z" fill="#2696F0"/>
<path d="M133.495 243.585H89.0059L91.019 241.263H131.482L133.495 243.585Z" fill="#2696F0"/>
<path d="M130.541 94.1593H91.957C91.4382 94.1593 91.0176 94.5799 91.0176 95.0988V107.097C91.0176 107.616 91.4382 108.036 91.957 108.036H130.541C131.06 108.036 131.481 107.616 131.481 107.097V95.0988C131.481 94.5799 131.06 94.1593 130.541 94.1593Z" fill="#2696F0"/>
<path opacity="0.2" d="M130.541 194.143H91.957C91.4382 194.143 91.0176 194.564 91.0176 195.083V200.37C91.0176 200.889 91.4382 201.31 91.957 201.31H130.541C131.06 201.31 131.481 200.889 131.481 200.37V195.083C131.481 194.564 131.06 194.143 130.541 194.143Z" fill="white"/>
<path opacity="0.2" d="M130.541 133.079H91.957C91.4382 133.079 91.0176 133.5 91.0176 134.019V139.306C91.0176 139.825 91.4382 140.246 91.957 140.246H130.541C131.06 140.246 131.481 139.825 131.481 139.306V134.019C131.481 133.5 131.06 133.079 130.541 133.079Z" fill="white"/>
<path opacity="0.2" d="M130.541 94.1593H91.957C91.4382 94.1593 91.0176 94.5799 91.0176 95.0988V107.097C91.0176 107.616 91.4382 108.036 91.957 108.036H130.541C131.06 108.036 131.481 107.616 131.481 107.097V95.0988C131.481 94.5799 131.06 94.1593 130.541 94.1593Z" fill="white"/>
<path d="M92.4331 96.1657H90.8159C89.8228 96.1657 89.0176 98.3734 89.0176 101.098C89.0176 103.822 89.8228 106.03 90.8159 106.03H92.4331C93.433 106.03 94.2382 103.822 94.2382 101.098C94.2382 98.3734 93.433 96.1657 92.4331 96.1657Z" fill="#2696F0"/>
<path opacity="0.4" d="M90.8159 106.03C91.8092 106.03 92.6143 103.822 92.6143 101.098C92.6143 98.3739 91.8092 96.1657 90.8159 96.1657C89.8227 96.1657 89.0176 98.3739 89.0176 101.098C89.0176 103.822 89.8227 106.03 90.8159 106.03Z" fill="white"/>
<path opacity="0.1" d="M92.4331 96.1657H90.8159C89.8228 96.1657 89.0176 98.3734 89.0176 101.098C89.0176 103.822 89.8228 106.03 90.8159 106.03H92.4331C93.433 106.03 94.2382 103.822 94.2382 101.098C94.2382 98.3734 93.433 96.1657 92.4331 96.1657Z" fill="white"/>
<path d="M89.9158 99.5477H82.1721C81.6621 99.5477 81.2461 100.219 81.2461 101.098C81.2461 101.977 81.6621 102.648 82.1721 102.648H89.9158C90.4258 102.648 90.8351 101.977 90.8351 101.098C90.8351 100.219 90.4057 99.5477 89.9158 99.5477Z" fill="#2696F0"/>
<path opacity="0.4" d="M83.0914 101.098C83.0914 101.95 82.6821 102.648 82.1721 102.648C81.6621 102.648 81.2461 101.977 81.2461 101.098C81.2461 100.219 81.6621 99.5477 82.1721 99.5477C82.6821 99.5477 83.0914 100.246 83.0914 101.098Z" fill="white"/>
<path opacity="0.1" d="M89.9158 99.5477H82.1721C81.6621 99.5477 81.2461 100.219 81.2461 101.098C81.2461 101.977 81.6621 102.648 82.1721 102.648H89.9158C90.4258 102.648 90.8351 101.977 90.8351 101.098C90.8351 100.219 90.4057 99.5477 89.9158 99.5477Z" fill="white"/>
<path d="M80.637 96.877H83.4419C85.1665 96.877 86.5623 98.7693 86.5623 101.098C86.5623 103.426 85.1665 105.319 83.4419 105.319H80.637C78.9192 105.319 77.5234 103.426 77.5234 101.098C77.5234 98.7693 78.9192 96.877 80.637 96.877Z" fill="#2696F0"/>
<path opacity="0.1" d="M80.637 96.877H83.4419C85.1665 96.877 86.5623 98.7693 86.5623 101.098C86.5623 103.426 85.1665 105.319 83.4419 105.319H80.637C78.9192 105.319 77.5234 103.426 77.5234 101.098C77.5234 98.7693 78.9192 96.877 80.637 96.877Z" fill="white"/>
<path opacity="0.2" d="M80.3203 101.098C80.3203 103.426 81.7161 105.319 83.4406 105.319C85.1652 105.319 86.5609 103.426 86.5609 101.098C86.5609 98.7693 85.1652 96.877 83.4406 96.877C81.7161 96.877 80.3203 98.7693 80.3203 101.098Z" fill="black"/>
<path d="M203.865 169.469H204.952C207.018 169.469 208.689 167.161 208.689 164.309C208.689 161.457 207.018 159.149 204.952 159.149H203.865C201.798 159.149 200.127 161.464 200.127 164.309C200.127 167.154 201.798 169.469 203.865 169.469Z" fill="#2696F0"/>
<path opacity="0.4" d="M201.215 164.309C201.215 161.464 202.892 159.149 204.953 159.149C207.013 159.149 208.69 161.464 208.69 164.309C208.69 167.154 207.019 169.469 204.953 169.469C202.886 169.469 201.215 167.161 201.215 164.309Z" fill="white"/>
<path opacity="0.2" d="M203.865 169.469H204.952C207.018 169.469 208.689 167.161 208.689 164.309C208.689 161.457 207.018 159.149 204.952 159.149H203.865C201.798 159.149 200.127 161.464 200.127 164.309C200.127 167.154 201.798 169.469 203.865 169.469Z" fill="white"/>
<path d="M206.181 154.284C202.256 154.284 199.068 158.894 199.068 164.578C199.068 170.261 202.256 174.878 206.181 174.878C210.107 174.878 213.294 170.268 213.294 164.578C213.294 158.887 210.114 154.284 206.181 154.284ZM203.323 164.309H200.444C200.467 162.561 200.866 160.838 201.612 159.256L203.698 163.074C203.483 163.453 203.355 163.875 203.323 164.309ZM203.323 164.98C203.364 165.371 203.488 165.748 203.685 166.087L201.598 169.906C200.869 168.363 200.471 166.685 200.431 164.98H203.323ZM206.47 164.98H211.945C211.907 166.705 211.505 168.401 210.764 169.959L206.349 165.557C206.405 165.369 206.443 165.176 206.463 164.98H206.47ZM206.47 164.309C206.451 164.082 206.409 163.857 206.342 163.638L210.758 159.229C211.517 160.826 211.923 162.568 211.945 164.336L206.47 164.309ZM210.422 158.592L206.007 162.96C205.872 162.755 205.696 162.579 205.49 162.444L206.443 155.68C208.02 155.76 209.416 156.881 210.422 158.592ZM205.765 155.68L204.866 162.283C204.605 162.295 204.353 162.388 204.148 162.551L201.981 158.552C202.94 156.921 204.282 155.834 205.765 155.68ZM201.981 170.61L204.161 166.631C204.365 166.793 204.613 166.886 204.873 166.899L205.759 173.502C204.276 173.321 202.934 172.234 201.981 170.61ZM206.443 173.516L205.53 166.718C205.736 166.583 205.912 166.407 206.047 166.201L210.436 170.57C209.409 172.288 208.02 173.415 206.43 173.516H206.443Z" fill="#2696F0"/>
<path d="M219.997 160.826L216.367 158.907C215.857 158.23 215.423 157.498 215.072 156.726C214.884 156.055 212.388 153.673 211.408 153.948C210.428 154.223 208.006 158.646 208.919 159.256C210.255 159.982 211.662 160.567 213.119 161.001C213.633 161.049 214.149 161.049 214.663 161.001L218.018 163.685L219.997 160.826Z" fill="#263238"/>
<path d="M240.096 159.189C240.096 159.189 228.567 163.49 227.272 163.524C225.977 163.558 217.415 158.505 217.415 158.505L214.73 162.101C214.73 162.101 222.454 168.865 224.313 170.308C226.172 171.751 241.807 168.235 241.807 168.235C242.235 166.697 242.304 165.081 242.007 163.512C241.71 161.943 241.056 160.464 240.096 159.189Z" fill="#263238"/>
<path opacity="0.3" d="M240.096 159.189C240.096 159.189 228.567 163.49 227.272 163.524C225.977 163.558 217.415 158.505 217.415 158.505L214.73 162.101C214.73 162.101 222.454 168.865 224.313 170.308C226.172 171.751 241.807 168.235 241.807 168.235C242.235 166.697 242.304 165.081 242.007 163.512C241.71 161.943 241.056 160.464 240.096 159.189Z" fill="white"/>
<path d="M229.882 239.794L225.346 240.746L220.508 232.788L225.037 231.828L229.882 239.794Z" fill="#E4897B"/>
<path d="M224.434 238.827H229.494C229.577 238.828 229.657 238.857 229.722 238.91C229.786 238.962 229.831 239.035 229.849 239.116L230.675 242.833C230.692 242.913 230.694 242.995 230.679 243.075C230.665 243.155 230.635 243.231 230.59 243.299C230.546 243.367 230.488 243.426 230.421 243.472C230.354 243.517 230.278 243.549 230.198 243.565C230.154 243.572 230.108 243.572 230.064 243.565C228.42 243.565 227.226 243.437 225.165 243.437C223.897 243.437 220.066 243.572 218.314 243.572C216.563 243.572 216.301 241.84 217.046 241.679C220.267 241.008 222.689 240.008 223.723 239.082C223.919 238.911 224.173 238.819 224.434 238.827Z" fill="#263238"/>
<path d="M223.052 239.559C222.769 239.579 222.488 239.504 222.253 239.344C222.175 239.282 222.115 239.2 222.078 239.107C222.042 239.014 222.031 238.913 222.045 238.814C222.042 238.756 222.056 238.699 222.086 238.65C222.116 238.601 222.16 238.562 222.213 238.539C222.676 238.297 224.025 239.129 224.173 239.21C224.192 239.216 224.208 239.229 224.218 239.246C224.227 239.264 224.231 239.284 224.226 239.304C224.221 239.324 224.212 239.343 224.197 239.358C224.183 239.373 224.165 239.385 224.146 239.391C223.788 239.484 223.421 239.54 223.052 239.559ZM222.435 238.693C222.394 238.677 222.348 238.677 222.307 238.693C222.307 238.693 222.247 238.727 222.24 238.807C222.232 238.873 222.241 238.939 222.264 239.001C222.287 239.063 222.325 239.118 222.374 239.163C222.843 239.377 223.376 239.404 223.864 239.237C223.427 238.966 222.941 238.784 222.435 238.7V238.693Z" fill="#2696F0"/>
<path d="M224.124 239.418H224.077C223.648 239.183 222.816 238.264 222.903 237.821C222.916 237.747 222.954 237.68 223.012 237.632C223.07 237.584 223.143 237.558 223.218 237.559C223.294 237.549 223.37 237.555 223.443 237.577C223.516 237.599 223.584 237.637 223.641 237.687C224.124 238.082 224.225 239.284 224.231 239.337C224.232 239.356 224.227 239.375 224.217 239.392C224.208 239.408 224.194 239.422 224.178 239.431L224.124 239.418ZM223.285 237.72H223.238C223.111 237.72 223.104 237.794 223.097 237.821C223.044 238.089 223.574 238.787 224.003 239.109C223.975 238.636 223.804 238.182 223.513 237.807C223.448 237.751 223.365 237.72 223.279 237.72H223.285Z" fill="#2696F0"/>
<path opacity="0.2" d="M225.037 231.828L220.508 232.788L223.004 236.895L227.54 235.935L225.037 231.828Z" fill="black"/>
<path d="M244.86 212.818C244.618 212.818 241.86 212.818 241.605 212.771C236.635 212.266 231.73 211.258 226.963 209.765C222.689 208.483 219.736 207.282 219.736 207.282C218.763 212.946 227.95 234.674 227.95 234.674L220.447 235.137C220.447 235.137 199.457 204.182 208.402 194.532C215.079 187.332 233.197 195.15 233.197 195.15L237.928 185.158L257.985 186.306C257.985 186.306 262.32 213.751 244.86 212.818Z" fill="#263238"/>
<path d="M220.796 236.029L228.278 234.828L227.56 232.795L219.42 234.492L220.796 236.029Z" fill="#2696F0"/>
<path d="M280.699 231.298L281.095 235.459L271.493 236.707L271.104 232.546L280.699 231.298Z" fill="#E4897B"/>
<path d="M280.665 236.083L280.188 231.03C280.183 230.947 280.204 230.864 280.251 230.795C280.297 230.726 280.365 230.674 280.443 230.647L284.067 229.48C284.223 229.431 284.391 229.447 284.536 229.522C284.68 229.597 284.789 229.727 284.839 229.882C284.842 229.927 284.842 229.972 284.839 230.017C284.966 231.654 284.98 232.855 285.167 234.908C285.288 236.17 285.778 239.975 285.946 241.719C286.114 243.464 284.409 243.853 284.181 243.155C283.181 240.015 281.987 237.693 280.967 236.754C280.787 236.575 280.68 236.336 280.665 236.083Z" fill="#263238"/>
<path d="M281.523 237.385C281.574 237.665 281.526 237.954 281.389 238.203C281.333 238.286 281.257 238.353 281.167 238.398C281.078 238.443 280.978 238.464 280.879 238.458C280.822 238.467 280.764 238.458 280.712 238.433C280.661 238.408 280.618 238.367 280.59 238.317C280.308 237.881 281.006 236.459 281.087 236.304C281.093 236.287 281.105 236.271 281.121 236.261C281.137 236.25 281.155 236.244 281.174 236.244C281.195 236.243 281.215 236.249 281.232 236.261C281.249 236.273 281.262 236.291 281.268 236.311C281.392 236.658 281.478 237.018 281.523 237.385ZM280.718 238.089C280.718 238.133 280.732 238.175 280.758 238.21C280.758 238.21 280.798 238.264 280.879 238.264C280.945 238.266 281.011 238.251 281.07 238.222C281.13 238.193 281.182 238.15 281.221 238.096C281.39 237.612 281.369 237.081 281.16 236.613C280.919 237.072 280.769 237.573 280.718 238.089Z" fill="#2696F0"/>
<path d="M281.276 236.338V236.385C281.081 236.834 280.243 237.727 279.8 237.727C279.725 237.721 279.655 237.688 279.602 237.635C279.55 237.583 279.517 237.513 279.511 237.438C279.493 237.365 279.491 237.288 279.506 237.214C279.521 237.139 279.553 237.069 279.598 237.009C279.941 236.485 281.128 236.277 281.189 236.264C281.207 236.262 281.224 236.265 281.241 236.272C281.257 236.279 281.272 236.29 281.283 236.304C281.283 236.316 281.281 236.327 281.276 236.338ZM279.665 237.331V237.378C279.665 237.505 279.753 237.512 279.78 237.512C280.055 237.512 280.699 236.948 280.981 236.485C280.51 236.56 280.072 236.775 279.726 237.103C279.68 237.169 279.659 237.25 279.665 237.331Z" fill="#2696F0"/>
<path opacity="0.2" d="M271.109 232.546L271.499 236.707L276.451 236.063L276.055 231.896L271.109 232.546Z" fill="black"/>
<path d="M274.881 237.801C274.881 237.801 247.805 245.719 241.061 240.941C237.746 238.592 236.478 232.647 236.283 225.897C236.189 221.313 236.434 216.728 237.015 212.181C237.894 204.907 239.29 198.928 239.9 198.029C239.9 198.029 258.018 197.525 257.521 202.055C257.025 206.584 247.362 229.923 249.469 231.775C251.576 233.627 274.398 230.889 274.398 230.889L274.881 237.801Z" fill="#263238"/>
<path d="M273.459 230.352L274.016 238.7L276.11 238.17L275.163 229.909L273.459 230.352Z" fill="#2696F0"/>
<path opacity="0.5" d="M220.796 236.029L228.278 234.828L227.56 232.795L219.42 234.492L220.796 236.029Z" fill="white"/>
<path opacity="0.5" d="M273.459 230.352L274.016 238.7L276.11 238.17L275.163 229.909L273.459 230.352Z" fill="white"/>
<path d="M229.083 149.244C229.184 149.573 229.036 149.915 228.821 149.915C228.607 149.915 228.365 149.728 228.291 149.399C228.217 149.07 228.338 148.728 228.553 148.728C228.768 148.728 229.016 148.929 229.083 149.244Z" fill="#263238"/>
<path d="M229.417 149.493C229.243 150.607 228.913 151.691 228.438 152.714C228.705 152.828 228.994 152.883 229.285 152.875C229.576 152.867 229.861 152.796 230.122 152.667L229.417 149.493Z" fill="#892B29"/>
<path d="M228.251 147.386C228.201 147.401 228.159 147.436 228.134 147.482C228.108 147.529 228.103 147.583 228.117 147.634C228.135 147.672 228.166 147.703 228.205 147.721C228.248 147.762 228.306 147.783 228.366 147.782C228.608 147.706 228.864 147.688 229.115 147.728C229.365 147.769 229.603 147.868 229.808 148.016C229.846 148.053 229.896 148.074 229.949 148.074C230.002 148.074 230.052 148.053 230.09 148.016C230.127 147.979 230.148 147.928 230.148 147.875C230.148 147.823 230.127 147.772 230.09 147.735C229.835 147.532 229.534 147.394 229.214 147.333C228.894 147.273 228.563 147.291 228.251 147.386Z" fill="#263238"/>
<path d="M230.459 154.17C230.566 154.358 230.68 154.539 230.801 154.713C231.496 155.711 232.476 156.476 233.613 156.908C233.9 157.021 234.196 157.109 234.499 157.169C235.29 157.352 236.113 157.356 236.906 157.179C237.699 157.003 238.442 156.651 239.082 156.149C239.654 155.693 240.131 155.127 240.484 154.485C242.007 151.801 241.289 149.379 240.41 145.185C240.223 144.2 239.786 143.279 239.141 142.511C238.496 141.743 237.665 141.153 236.728 140.798C235.79 140.443 234.777 140.334 233.785 140.481C232.794 140.629 231.856 141.028 231.063 141.642C227.48 144.386 228.56 150.687 230.459 154.17Z" fill="#B97964"/>
<path opacity="0.2" d="M233.613 156.908C233.9 157.021 234.197 157.109 234.499 157.169C235.291 157.352 236.113 157.356 236.906 157.179C237.699 157.003 238.443 156.651 239.082 156.149C238.761 155.703 238.384 155.3 237.962 154.948C236.354 155.169 234.844 155.85 233.613 156.908Z" fill="black"/>
<path d="M243.382 160.021C241.845 162.423 236.672 163.088 236.672 163.088C236.672 163.088 233.316 163.088 233.719 161.927C235.47 161.128 236.128 160.035 236.195 158.84C236.212 158.107 236.085 157.377 235.819 156.693C235.685 156.31 235.517 155.935 235.35 155.566L240.282 149.332C240.288 152.566 240.798 158.364 243.382 160.021Z" fill="#B97964"/>
<path d="M230.331 139.897C231.284 139.145 234.142 137.79 236.115 137.79C242.228 137.79 242.423 141.306 242.423 141.306C241.913 140.737 241.256 140.322 240.524 140.105C247.167 146.305 241.135 153.942 241.135 153.942C238.578 153.492 235.766 155.056 235.766 155.056C235.766 155.056 234.142 151.472 232.814 150.526C231.321 149.299 230.37 147.535 230.163 145.614C230.163 144.084 228.895 145.131 228.895 145.131C227.613 144.42 228.935 141.004 230.331 139.897Z" fill="#263238"/>
<path d="M234.122 149.459C234.147 149.869 234.081 150.28 233.929 150.661C233.777 151.043 233.543 151.386 233.243 151.667C232.498 152.251 231.625 151.217 231.411 149.942C231.23 148.808 231.377 147.104 232.337 147.064C233.296 147.023 234.115 148.298 234.122 149.459Z" fill="#B97964"/>
<path d="M230.715 143.661C230.715 143.661 230.52 153.391 232.587 156.411C232.587 156.411 229.983 154.593 230.01 144.111L230.715 143.661Z" fill="black"/>
<path d="M233.613 142.42C233.613 142.42 237.264 145.963 240.008 146.627C242.753 147.292 243.739 145.648 243.739 145.648L243.384 142.695C243.384 142.695 243.457 144.97 242.35 145.198C241.243 145.426 238.7 144.923 235.68 141.991L233.613 142.42Z" fill="#2696F0"/>
<path opacity="0.4" d="M233.613 142.42C233.613 142.42 237.264 145.963 240.008 146.627C242.753 147.292 243.739 145.648 243.739 145.648L243.384 142.695C243.384 142.695 243.457 144.97 242.35 145.198C241.243 145.426 238.7 144.923 235.68 141.991L233.613 142.42Z" fill="white"/>
<path d="M227.478 145.406C227.478 145.406 227.123 141.091 228.82 139.078C230.518 137.065 235.363 135.958 238.503 136.703C241.644 137.448 243.355 141.501 243.482 142.326C243.771 144.245 236.598 140.863 232.531 142.386C228.465 143.91 227.478 145.406 227.478 145.406Z" fill="#2696F0"/>
<path opacity="0.2" d="M227.478 145.406C227.478 145.406 227.123 141.091 228.82 139.078C230.518 137.065 235.363 135.958 238.503 136.703C241.644 137.448 243.355 141.501 243.482 142.326C243.771 144.245 236.598 140.863 232.531 142.386C228.465 143.91 227.478 145.406 227.478 145.406Z" fill="black"/>
<path d="M229.344 138.548C229.344 138.548 229.592 136.408 230.263 135.864C230.934 135.32 236.531 134.623 238.215 135.3C239.899 135.978 242.456 138.998 242.946 142.574L240.228 142.93C240.228 142.93 239.335 138.904 236.913 137.75C234.128 136.461 229.344 138.548 229.344 138.548Z" fill="#2696F0"/>
<path d="M226.176 147.58C226.176 147.58 228.377 148.097 230.135 145.393C231.893 142.688 235.691 142.494 238.697 143.172C240.825 143.652 243.02 143.766 245.186 143.507L243.462 142.326C243.462 142.326 241.261 142.843 237.422 141.655C233.584 140.467 228.545 143.051 227.491 145.406L226.176 147.58Z" fill="#2696F0"/>
<path d="M258.395 186.997L235.036 190.761C234.647 185.299 233.983 180.072 233.231 175.388C233.151 174.838 233.057 174.301 232.97 173.771C232.775 172.61 232.493 171.281 232.171 169.912C231.373 166.49 230.346 162.793 229.883 160.739C229.883 160.739 238.532 157.605 245.417 159.35C253.557 161.41 258.395 186.997 258.395 186.997Z" fill="#2696F0"/>
<path opacity="0.2" d="M251.811 207.826C251.657 208.349 246.731 224.46 236.283 225.897C236.189 221.313 236.434 216.728 237.015 212.181C239.37 212.563 241.749 212.774 244.134 212.811C246.711 212.717 251.14 209.55 251.811 207.826Z" fill="black"/>
<path opacity="0.7" d="M257.743 183.95L234.801 187.943C234.713 186.863 234.606 185.789 234.485 184.729L244.732 182.716C244.061 179.407 242.719 173.415 240.806 168.946C239.213 165.358 236.816 162.185 233.801 159.672C234.203 159.578 234.626 159.491 235.069 159.411C242.202 164.779 245.806 177.079 247.054 182.259L253.536 180.971C252.965 177.944 251.523 171.227 249.443 166.329C248.3 163.702 246.711 161.293 244.745 159.209C244.98 159.256 245.215 159.31 245.416 159.37C246.033 159.534 246.614 159.807 247.134 160.176C252.402 166.691 255.046 176.73 255.898 180.501L256.837 180.32C257.206 181.675 257.502 182.917 257.743 183.95Z" fill="white"/>
<path opacity="0.2" d="M233.23 175.388C233.15 174.838 233.056 174.301 232.968 173.771C232.774 172.61 232.492 171.281 232.17 169.912C232.733 169.412 233.4 169.043 234.123 168.832C234.123 168.832 234.8 172.918 233.23 175.388Z" fill="black"/>
<path d="M210.616 172.704L206.537 172.254C205.81 171.811 205.135 171.289 204.523 170.697C204.101 170.147 200.92 168.845 200.095 169.463C199.269 170.08 198.652 175.079 199.732 175.314C201.24 175.498 202.762 175.525 204.275 175.395C204.769 175.245 205.247 175.05 205.704 174.811L209.825 176.045L210.616 172.704Z" fill="#263238"/>
<path d="M231.345 161.343C231.345 161.343 219.569 172.033 218.374 172.536C217.18 173.039 207.383 171.482 207.383 171.482L206.182 175.811C206.182 175.811 215.851 179.26 218.106 179.924C220.361 180.588 233.613 171.563 233.613 171.563C233.613 171.563 236.083 164.403 231.345 161.343Z" fill="#263238"/>
<path opacity="0.4" d="M231.345 161.343C231.345 161.343 219.569 172.033 218.374 172.536C217.18 173.039 207.383 171.482 207.383 171.482L206.182 175.811C206.182 175.811 215.851 179.26 218.106 179.924C220.361 180.588 233.613 171.563 233.613 171.563C233.613 171.563 236.083 164.403 231.345 161.343Z" fill="white"/>
</svg>
